# Rectangular hollow cup, centered around the origin.
v -0.035 -0.035 -0.050
v 0.035 -0.035 -0.050
v 0.035 0.035 -0.050
v -0.035 0.035 -0.050
v -0.035 -0.035 0.056
v 0.035 -0.035 0.056
v 0.035 0.035 0.056
v -0.035 0.035 0.056
v -0.028 -0.028 -0.046
v 0.028 -0.028 -0.046
v 0.028 0.028 -0.046
v -0.028 0.028 -0.046
v -0.028 -0.028 0.056
v 0.028 -0.028 0.056
v 0.028 0.028 0.056
v -0.028 0.028 0.056
f 1 2 6 5
f 2 3 7 6
f 3 4 8 7
f 4 1 5 8
f 1 4 3 2
f 9 10 11 12
f 9 13 14 10
f 10 14 15 11
f 11 15 16 12
f 12 16 13 9
f 5 6 14 13
f 6 7 15 14
f 7 8 16 15
f 8 5 13 16
